<?xml version="1.0" ?><svg viewBox="0 0 24 24" xmlns="http://www.w3.org/2000/svg"><defs><style>.cls-1,.cls-2{fill:none;}.cls-2{stroke:#000;stroke-linecap:round;stroke-linejoin:round;}</style></defs><g data-name="Layer 2" id="Layer_2"><g id="Workspace"><rect class="cls-1" height="24" width="24"/><path class="cls-2" d="M10,14h3a1,1,0,0,0,1-1h0a1,1,0,0,0-1-1H11a1,1,0,0,1-1-1h0a1,1,0,0,1,1-1h3"/><line class="cls-2" x1="12" x2="12" y1="15" y2="9"/><path class="cls-2" d="M7.76,6.34V7.76A6,6,0,0,1,18,12"/><path class="cls-2" d="M16.24,17.66V16.24A6,6,0,0,1,6,12"/></g></g></svg>