<svg width="352" height="1024" viewBox="0 0 352 1024" fill="none" xmlns="http://www.w3.org/2000/svg">
<g clip-path="url(#clip0_102_3)">
<path d="M167.09 -475.887L149.843 -423.139C132.596 -370.392 98.1026 -264.896 75.3449 -159.468C52.1485 -54.0375 41.7849 51.3195 88.7845 156.347C136.223 261.372 242.121 366.062 272.011 471.188C301.461 576.316 255.999 681.874 250.352 787.204C245.143 892.532 280.846 997.624 298.697 1050.17L316.548 1102.72L0.666282 1104.53L0.364064 1051.88C0.0618469 999.236 -0.542588 893.942 -1.14702 788.648C-1.75146 683.354 -2.35589 578.06 -2.96033 472.766C-3.56476 367.472 -4.1692 262.178 -4.77363 156.884C-5.37807 51.5902 -5.9825 -53.7038 -6.58694 -158.998C-7.19137 -264.292 -7.79581 -369.586 -8.09802 -422.233L-8.40024 -474.88L167.09 -475.887Z" fill="#2DD096"/>
</g>
<defs>
<clipPath id="clip0_102_3">
<rect width="1579.44" height="350.986" fill="white" transform="translate(342.58 -476.895) rotate(89.6711)"/>
</clipPath>
</defs>
</svg>
